# xmcd
#
# Track frame offsets:
#	150
#	35345
#	78370
#	104382
#	136377
#	170006
#	187433
#	211589
#	253805
#	297032
#
# Disc length: 4516 seconds
#
# Revision: 1
# Processed by: cddbd v1.5.2PL0 Copyright (c) Steve Scherf et al.
# Submitted via: EZCDAudioConverter 7.0.4.1
#
DISCID=9011a20a
DTITLE=Livin' Blues -  Xperience - Alive and Kicking
DYEAR=2014
DGENRE=Blues
TTITLE0=Spoonfull
TTITLE1=Blacknight
TTITLE2=Crazy Crazy
TTITLE3=Hitchhiking Blues
TTITLE4=Too Many Chiefs
TTITLE5=Mysterious Ways
TTITLE6=No Use Cryin'
TTITLE7=Red lights
TTITLE8=Wang Dang Doodle - LB Boogie
TTITLE9=Voodoo Dancer
EXTD=
EXTT0=
EXTT1=
EXTT2=
EXTT3=
EXTT4=
EXTT5=
EXTT6=
EXTT7=
EXTT8=
EXTT9=
PLAYORDER=
